<svg xmlns="http://www.w3.org/2000/svg" style="display: block;" viewBox="0 0 1672 1456" width="418" height="364"><path transform="translate(0,0)" fill="rgb(218,139,58)" d="M945.12 1374.13C949.855 1373.98 954.791 1373.56 959.195 1375.65 963.371 1377.64 966.338 1381.43 967.792 1385.76 971.236 1396.02 967.656 1412.01 963.031 1421.45 958.608 1430.48 952.229 1436.25 942.738 1439.41 937.879 1440.61 932.761 1441.51 927.893 1439.79 924.238 1438.51 921.359 1435.75 919.737 1432.26 915.036 1422.16 919.224 1405.72 923.224 1395.96 927.757 1384.9 934.176 1378.76 945.12 1374.13z"/><path transform="translate(0,0)" fill="rgb(218,139,58)" d="M235.693 1420.35C245.703 1419.04 256.337 1420.11 266.447 1420.09 267.428 1425.39 268.531 1430.71 269.373 1436.04 269.873 1439.19 269.816 1442.24 267.726 1444.85 264.987 1448.27 259.393 1448.28 255.348 1448.82 246.643 1449.63 234.129 1450.86 225.868 1447.74 223.898 1447 222.201 1445.78 221.327 1443.86 219.983 1440.9 220.943 1437.82 222.153 1434.97 224.946 1428.42 228.965 1423.06 235.693 1420.35z"/><path transform="translate(0,0)" fill="rgb(218,139,58)" d="M1194.57 1374.16C1199.67 1373.99 1205.23 1374.36 1209.24 1377.96 1211.69 1380.15 1212.81 1383.27 1212.76 1386.52 1212.65 1394.45 1207.17 1400.1 1201.89 1405.25 1198.3 1406.99 1193.94 1408.88 1189.93 1408.27 1188.91 1407.63 1187.74 1407.19 1187.13 1406.13 1183.35 1399.62 1185.93 1391.17 1187.78 1384.37 1189.2 1379.09 1189.71 1376.94 1194.57 1374.16z"/><path transform="translate(0,0)" fill="rgb(218,139,58)" d="M370.648 1416.95C373.016 1416.9 375.776 1416.78 378.067 1417.39 380.883 1418.15 382.791 1420.99 384.145 1423.36 388.017 1430.16 390.451 1441.11 388.46 1448.76 385.99 1450.45 381.703 1449.64 378.792 1449.51 373.143 1449.67 367.496 1449.93 361.855 1450.28 363.8 1440.41 365.174 1425.4 370.648 1416.95z"/><path transform="translate(0,0)" fill="rgb(218,139,58)" d="M808.207 1415.98C812.196 1416.49 815.892 1417.69 819.715 1418.89 822.193 1424.97 824.389 1432.19 825.413 1438.68 825.986 1442.32 826.179 1446.54 824.003 1449.58L819.25 1449.73 799.727 1450.11C801.381 1439.77 801.839 1424.4 808.207 1415.98z"/><path transform="translate(0,0)" fill="rgb(218,139,58)" d="M815.516 1375.01C819.113 1374.91 822.978 1374.64 826.544 1375.16 829.944 1375.69 832.988 1377.57 834.989 1380.36 836.298 1382.18 836.808 1384.44 836.4 1386.64 835.38 1392.22 830.378 1396.35 825.882 1399.23 820.551 1401.51 815.508 1402.52 809.797 1403.46 809.903 1400.65 810.026 1397.85 810.168 1395.05 810.502 1388.6 810.422 1379.6 815.516 1375.01z"/><path transform="translate(0,0)" fill="rgb(218,139,58)" d="M381.295 1374.23C383.316 1374.16 385.337 1374.13 387.348 1374.38 391.377 1374.87 394.324 1376.11 396.665 1379.55 398.456 1382.19 398.823 1385.35 398.068 1388.4 396.498 1394.76 392.778 1397.13 387.495 1400.21 384.73 1401.16 382.056 1401.63 379.168 1402.05 377.216 1401.36 376.262 1401.27 375.048 1399.39 372.366 1395.24 373.247 1389.67 374.329 1385.16 375.701 1379.44 376.252 1377.31 381.295 1374.23z"/><path transform="translate(0,0)" fill="rgb(218,139,58)" d="M259.333 1380.69C262.305 1384 265.12 1406.32 266.289 1411.99L243.751 1411.65C241.667 1411.77 240.735 1412.25 239.076 1410.9 240.305 1401.66 253.223 1387.86 259.333 1380.69z"/><path transform="translate(0,0)" fill="rgb(218,139,58)" d="M766.075 945.95C777.934 923.987 792.649 903.08 805.759 881.808l84.747-137.331L993.001 578.076C1006.58 555.79 1020.27 533.574 1034.08 511.427 1044.78 494.126 1057.01 468.392 1072.39 455.475 1105.32 504.787 1134.66 557.324 1164.87 608.367l112.36 188.004 293.64 486.379C1588.65 1312.05 1605.76 1341.8 1623.74 1370.97 1638.75 1395.3 1654.86 1419.18 1669.1 1443.96 1670.19 1445.85 1670.73 1446.98 1670.71 1449.21 1656.76 1451.7 1639.5 1449.85 1625.3 1449.79L1532.5 1449.6 1175.68 1449.65C1176.37 1441.38 1177.67 1432.86 1179.74 1424.83 1186.06 1423.41 1192.32 1423.53 1198.71 1422.88 1209.84 1421.75 1218.62 1417.43 1225.66 1408.56 1231.71 1400.93 1235.56 1390.38 1234.06 1380.58 1233.13 1374.52 1229.88 1369.32 1224.97 1365.68 1211.73 1355.89 1190 1358.41 1174.59 1360.72 1168.87 1375.48 1167.09 1392.1 1164.17 1407.62 1161.52 1421.68 1158.34 1435.6 1156.4 1449.78 1141.81 1450.22 1127.04 1450.07 1112.44 1449.97 1107.17 1449.93 1101.77 1448.89 1096.55 1449.54 1094.85 1449.75 1093.93 1449.88 1092.27 1449.26 1096.07 1444.71 1101.48 1438.9 1103.5 1433.37 1112.32 1409.19 1116.01 1384.24 1120.61 1359.03 1113.71 1359.03 1107.2 1359.57 1100.38 1360.47 1096.46 1379.65 1093.68 1425.11 1077.33 1436.53 1073 1439.55 1065.98 1441.73 1060.69 1440.48 1057.96 1439.84 1055.73 1438.21 1054.26 1435.84 1046.5 1423.35 1060.16 1374.73 1063.28 1358.59L1042.49 1360.88C1039.6 1379.31 1025.14 1430.58 1034.81 1445.55 1035.3 1446.32 1035.78 1447.08 1036.26 1447.85L1036.97 1448.98C1034.71 1450.87 967.96 1449.89 959.7 1449.95 970.301 1442.19 978.26 1434.52 983.272 1422.09 990.187 1405.35 990.159 1386.55 983.193 1369.83 977.206 1366.1 971.552 1363.13 964.671 1361.4 951.327 1358.05 937.026 1359.73 925.166 1366.85 912.47 1374.47 904.287 1387.15 900.916 1401.4 896.859 1418.56 898.311 1435.02 907.605 1450.12 894.037 1449.37 860.857 1452.8 850.098 1448.6 849.626 1448.41 848.331 1447.81 848.027 1447.51 845.56 1445.09 840.449 1417.24 838.229 1411.73L837.728 1410.5C841.148 1408.06 844.601 1405.62 847.595 1402.66 853.316 1397 857.633 1389.65 857.373 1381.37 857.198 1375.78 854.877 1367.9 850.681 1364.06 843.712 1357.67 806.308 1359.92 796.084 1360.59 794.31 1369.09 793.455 1377.92 791.947 1386.49 788.244 1407.56 784.12 1428.55 779.574 1449.46 762.314 1450.42 744.815 1449.97 727.521 1450.02 729.686 1434.28 733.721 1418.51 736.508 1402.84 723.575 1402.27 710.636 1401.83 697.695 1401.51L695.068 1417.25C697.864 1416.73 700.651 1416.56 703.489 1416.51 707.375 1416.44 709.147 1416.95 711.935 1419.61 712.733 1421.76 712.961 1423.52 712.745 1425.82 712.317 1430.36 710.729 1434.85 707.031 1437.75 703.192 1440.76 697.677 1441.33 693.009 1440.51 687.449 1439.54 681.98 1436.73 678.793 1431.95 674.291 1425.19 674.747 1416.21 676.399 1408.6 688.07 1354.89 728.013 1384.56 742.072 1375.68 742.733 1374.03 743.173 1372.71 743.102 1370.91 743.009 1368.56 742.147 1366.72 740.307 1365.22 733.248 1359.47 714.415 1359.49 705.802 1360.33 689.904 1361.86 675.969 1369.58 665.993 1382.07 656.675 1393.74 652.765 1410.71 654.642 1425.41 655.95 1435.66 660.92 1443.33 668.995 1449.55 623.69 1451.15 578.084 1449.24 532.718 1450.08 536.531 1434.29 540.843 1418.78 543.445 1402.72 530.029 1402.12 516.697 1401.91 503.265 1401.94 502.603 1406.75 502.098 1411.6 501.521 1416.43 507.776 1416.97 514.016 1417.06 520.289 1417.17 518.996 1421.34 518.402 1425.59 517.343 1429.81 516.439 1433.41 514.425 1437.4 510.978 1439.16 505.122 1442.16 495.745 1439.11 489.883 1437.19 488.508 1435.72 487.014 1434.21 485.861 1432.57 481.475 1426.3 480.858 1416.99 482.207 1409.65 484.38 1397.83 490.825 1386.01 500.915 1379.22 515.463 1369.42 526.44 1376.7 541.486 1379.35 544.453 1379.87 546.045 1379.54 548.443 1377.9 549.193 1375.96 549.497 1374.57 549.37 1372.47 549.212 1369.87 548.46 1366.67 546.397 1364.93 539.838 1359.41 522.32 1358.29 513.971 1359.21 499.14 1360.85 483.905 1367.42 474.476 1379.31 464.629 1391.72 459.294 1410.43 461.189 1426.18 462.241 1434.92 466.268 1442.61 473.181 1448.07L473.385 1449.69 472.322 1450.24C452.223 1448.04 430.937 1450.28 410.603 1449.57 406.815 1436.33 406.436 1423.39 400.538 1410.6 404.627 1408.46 409.249 1406.14 412.464 1402.76 418.349 1396.57 419.803 1388.2 419.373 1379.93 419.082 1374.34 417.241 1369.04 412.833 1365.36 400.554 1355.13 373.965 1359.42 358.918 1360.25 355.535 1390.03 347.885 1420.13 342.263 1449.61 325.797 1450.13 309.477 1451.06 293.444 1446.46 289.812 1432.93 288.468 1418.44 286.419 1404.59 283.513 1384.39 280.243 1364.24 276.611 1344.16 280.797 1334.7 287.646 1325.65 293.231 1316.9 302.221 1302.81 311.091 1288.65 319.84 1274.41 329.567 1258.52 339.195 1242.57 348.725 1226.55 354.592 1216.73 359.996 1206.41 366.974 1197.32 379.489 1193.56 401.086 1195.51 414.409 1195.43 459.198 1195.16 503.916 1196.42 548.692 1196.22L1231.9 1195.07C1213.24 1168.42 1197.8 1139.22 1181.32 1111.17L1116.63 1002.73C1106.31 985.167 1097.5 965.566 1085.88 948.958 1073.38 943.003 805.795 946.962 766.075 945.95z"/><path transform="translate(0,0)" fill="rgb(218,139,58)" d="M785.389.0h11.729C806.065 12.6725 813.874 26.2845 821.996 39.4966l54.705 90.9944L916.069 196.049C923.548 208.341 937.397 226.886 941.469 240.321 935.918 254.719 924.8 268.729 916.538 281.775l-37.869 60.87-138.71 222.24L331.165 1220.62C315.233 1246.43 298.259 1271.6 281.987 1297.19L229.765 1381.01c-14.255 22.47-29.336 44.53-42.773 67.49C144.62 1416.13 103.807 1381.14 62.4275 1347.47 42.4103 1331.18 18.0136 1315.06.0 1297.11V1294.99c13.4352-17.54 27.3392-44.54 38.9434-63.98l74.7656-125.37C127.411 1082.3 142.555 1059.8 156.611 1036.66L271.055 847.694 577.859 340.12 724.372 100.391C744.625 67.0154 766.278 33.9993 785.389.0z"/></svg>